<svg xmlns="http://www.w3.org/2000/svg" viewBox="0 0 64 64"><defs><style>.cls-1{fill:#131313}</style></defs><rect id="BG-Color" width="64" height="64" rx="4" ry="4" style="fill:#ff6777"/><g id="ExtentionIcons"><path d="M40 38H24a2 2 0 0 0 0 4h16a2 2 0 0 0 0-4M40 30H24a2 2 0 0 0 0 4h16a2 2 0 0 0 0-4M40 22H24a2 2 0 0 0 0 4h16a2 2 0 0 0 0-4" class="cls-1"/><path d="M32 12c-11.028 0-20 8.972-20 20s8.972 20 20 20 20-8.972 20-20-8.972-20-20-20m0 36c-8.822 0-16-7.178-16-16s7.178-16 16-16 16 7.178 16 16-7.178 16-16 16" class="cls-1"/></g></svg>